<?xml version="1.0" encoding="utf-8"?>
<!-- Generator: Adobe Illustrator 21.1.0, SVG Export Plug-In . SVG Version: 6.00 Build 0)  -->
<svg version="1.1" id="Layer_1" xmlns="http://www.w3.org/2000/svg" xmlns:xlink="http://www.w3.org/1999/xlink" x="0px" y="0px"
	 viewBox="0 0 800 150" style="enable-background:new 0 0 800 150;" xml:space="preserve">
<style type="text/css">
	.st0{fill:#4B5159;}
	.st1{fill:#FF536D;}
</style>
<path class="st0" d="M747.7,33.9c-1.4,2-2.1,4.5-2.1,7.4v73.8c0,2.5,0.9,4.7,2.6,6.4c1.8,1.7,4.1,2.6,6.9,2.6c2.9,0,5.2-0.9,6.9-2.6
	c1.7-1.7,2.6-3.8,2.6-6.2V71.7c0-3.3,0.3-6.3,1-9c0.7-2.7,1.9-5,3.6-6.9c1.8-1.9,4.2-3.4,7.3-4.6c3.1-1.1,7-1.8,11.8-2.2
	c2.9-0.2,5-1.1,6.3-2.7c1.3-1.6,2-3.7,2-6.4c0-3.3-0.9-5.7-2.7-7.2c-1.8-1.5-4.1-2.2-6.9-2.2c-5,0-9.3,0.8-13.1,2.3
	c-3.8,1.5-7.2,4.1-10.4,7.6c-0.2-3-1-5.3-2.3-7c-1.3-1.7-3.4-2.6-6.1-2.6C751.5,30.8,749.1,31.9,747.7,33.9 M692.6,49.4
	c3.1,1.1,5.9,2.6,8.4,4.6c2.5,2,4.7,4.3,6.5,6.9c1.8,2.6,2.9,5.5,3.5,8.6h-55.6c0.7-3.1,1.9-6,3.6-8.6c1.8-2.6,3.9-5,6.4-6.9
	c2.5-2,5.3-3.5,8.4-4.6c3.1-1.1,6.2-1.7,9.4-1.7C686.3,47.7,689.5,48.3,692.6,49.4 M664.2,32.6c-5.9,2.6-11.1,6.1-15.5,10.5
	c-4.4,4.4-7.9,9.6-10.4,15.5c-2.5,5.9-3.8,12.2-3.8,18.9c0,6.7,1.3,13,3.8,18.9c2.5,5.9,6,11,10.4,15.4c4.4,4.4,9.6,7.8,15.5,10.3
	c5.9,2.5,12.2,3.8,18.9,3.8c6.8,0,13.2-1.2,19-3.5c5.8-2.3,10.9-5.8,15.2-10.6c1-1,1.7-2.1,2-3.3c0.3-1.2,0.5-2.5,0.5-3.8
	c0-2.5-0.9-4.7-2.6-6.6c-1.7-1.9-3.8-2.8-6.4-2.8c-1.2,0-2.5,0.3-3.8,0.9c-1.3,0.6-2.5,1.4-3.6,2.4c-2.7,2.6-5.7,4.7-9.1,6.1
	c-3.4,1.4-7.2,2.2-11.3,2.2c-3.2,0-6.3-0.5-9.4-1.7c-3.1-1.1-5.9-2.6-8.5-4.6c-2.6-1.9-4.8-4.2-6.5-6.9c-1.8-2.6-2.9-5.5-3.5-8.6
	h67.2c3,0,5.3-0.8,6.9-2.5c1.7-1.7,2.5-4.1,2.5-7.3c0-6.3-1.3-12.3-3.9-18s-6.1-10.6-10.5-14.9c-4.4-4.2-9.6-7.6-15.5-10.2
	c-5.9-2.5-12.2-3.8-18.8-3.8C676.4,28.7,670.1,30,664.2,32.6 M540.7,33.1c-1.6,1.5-2.4,3.5-2.4,6v75.5c0,3,0.9,5.3,2.7,6.9
	c1.8,1.7,4.1,2.5,6.7,2.5c3,0,5.3-0.8,7-2.5c1.7-1.7,2.6-4,2.6-6.9V70.7c0-3.3,0.5-6.4,1.6-9.2c1-2.8,2.6-5.2,4.6-7.3
	c2-2,4.4-3.7,7.1-4.9c2.8-1.2,5.8-1.8,9.1-1.8c3.3,0,6.3,0.6,8.9,1.8c2.6,1.2,4.9,2.9,6.7,5c1.8,2.1,3.2,4.6,4.2,7.4
	c1,2.8,1.5,5.8,1.5,9v43.9c0,3,0.9,5.3,2.6,6.9c1.8,1.7,4,2.5,6.8,2.5c2.9,0,5.2-0.8,6.9-2.5c1.7-1.7,2.6-4,2.6-6.9V70.7
	c0-6-0.9-11.5-2.7-16.6c-1.8-5.1-4.4-9.6-7.9-13.3c-3.4-3.7-7.6-6.7-12.4-8.9c-4.9-2.2-10.3-3.2-16.2-3.2c-5.2,0-9.9,0.9-14.1,2.8
	c-4.2,1.9-7.7,4.4-10.6,7.6c-1-5.5-4.2-8.3-9.6-8.3C544.2,30.8,542.3,31.6,540.7,33.1 M346.3,66.9c0-2.8,0.6-5.3,1.7-7.6
	c1.2-2.3,2.6-4.4,4.5-6.1c1.8-1.8,3.9-3.1,6.3-4.1c2.4-1,4.7-1.5,7-1.5c2.3,0,4.6,0.5,6.8,1.5c2.2,1,4.2,2.4,5.9,4.1
	c1.7,1.8,3.1,3.8,4.1,6.1c1,2.3,1.6,4.9,1.6,7.6v47.7c0,3,0.9,5.3,2.6,6.9c1.8,1.7,4,2.5,6.6,2.5c3,0,5.3-0.8,7-2.5
	c1.7-1.7,2.6-4,2.6-6.9V66.9c0-2.8,0.6-5.3,1.7-7.6c1.2-2.3,2.7-4.4,4.5-6.1c1.9-1.8,4-3.1,6.3-4.1c2.3-1,4.7-1.5,7.1-1.5
	c2.3,0,4.6,0.5,6.8,1.5c2.2,1,4.2,2.4,5.9,4.1c1.7,1.8,3.1,3.8,4.1,6.1c1,2.3,1.5,4.9,1.5,7.6v47.7c0,3,0.9,5.3,2.6,6.9
	c1.8,1.7,4,2.5,6.8,2.5c2.9,0,5.2-0.8,6.9-2.5c1.7-1.7,2.6-4,2.6-6.9V66.9c0-5.5-1-10.6-3.1-15.3c-2.1-4.7-4.9-8.7-8.3-12.1
	c-3.4-3.4-7.4-6-11.8-7.9c-4.5-1.9-9.1-2.9-13.8-2.9c-5.3,0-10.6,1.1-15.9,3.3c-5.3,2.2-9.5,5.8-12.7,10.8c-1.4-2.4-3.2-4.6-5.4-6.4
	s-4.5-3.3-6.9-4.4c-2.5-1.1-5.1-1.9-7.9-2.5c-2.8-0.6-5.5-0.8-8.1-0.8c-4,0-7.9,0.8-11.7,2.3c-3.8,1.5-7,4-9.5,7.4
	c-0.9-5.1-4-7.6-9.4-7.6c-2.4,0-4.4,0.7-5.8,2.2c-1.4,1.5-2.2,3.5-2.2,6v75.5c0,3,0.9,5.3,2.7,6.9c1.8,1.7,4.1,2.5,6.7,2.5
	c3,0,5.3-0.8,7-2.5c1.7-1.7,2.6-4,2.6-6.9V66.9z M194.6,66.9c0-2.8,0.6-5.3,1.7-7.6c1.2-2.3,2.6-4.4,4.5-6.1
	c1.8-1.8,3.9-3.1,6.3-4.1c2.4-1,4.7-1.5,7-1.5c2.3,0,4.6,0.5,6.8,1.5c2.2,1,4.2,2.4,5.9,4.1c1.7,1.8,3.1,3.8,4.1,6.1
	c1,2.3,1.6,4.9,1.6,7.6v47.7c0,3,0.9,5.3,2.6,6.9c1.8,1.7,4,2.5,6.6,2.5c3,0,5.3-0.8,7-2.5c1.7-1.7,2.6-4,2.6-6.9V66.9
	c0-2.8,0.6-5.3,1.7-7.6c1.2-2.3,2.7-4.4,4.6-6.1c1.9-1.8,4-3.1,6.3-4.1s4.7-1.5,7.1-1.5c2.3,0,4.6,0.5,6.8,1.5s4.2,2.4,5.9,4.1
	c1.7,1.8,3.1,3.8,4.1,6.1c1,2.3,1.5,4.9,1.5,7.6v47.7c0,3,0.9,5.3,2.6,6.9c1.8,1.7,4,2.5,6.8,2.5c2.9,0,5.2-0.8,6.9-2.5
	c1.7-1.7,2.6-4,2.6-6.9V66.9c0-5.5-1-10.6-3.1-15.3c-2.1-4.7-4.9-8.7-8.3-12.1c-3.4-3.4-7.4-6-11.8-7.9c-4.5-1.9-9.1-2.9-13.8-2.9
	c-5.3,0-10.6,1.1-15.9,3.3c-5.3,2.2-9.5,5.8-12.7,10.8c-1.4-2.4-3.2-4.6-5.4-6.4c-2.2-1.8-4.5-3.3-7-4.4c-2.5-1.1-5.1-1.9-7.9-2.5
	c-2.8-0.6-5.5-0.8-8.1-0.8c-4,0-7.9,0.8-11.7,2.3c-3.8,1.5-7,4-9.5,7.4c-0.9-5.1-4-7.6-9.4-7.6c-2.4,0-4.4,0.7-5.8,2.2
	c-1.4,1.5-2.2,3.5-2.2,6v75.5c0,3,0.9,5.3,2.7,6.9c1.8,1.7,4.1,2.5,6.7,2.5c3,0,5.3-0.8,7-2.5c1.7-1.7,2.6-4,2.6-6.9V66.9z
	 M153.7,121.8c1.6-1.5,2.4-3.5,2.4-6V40.3c0-3-0.9-5.3-2.7-7c-1.8-1.7-4.1-2.5-6.7-2.5c-3,0-5.3,0.8-7,2.5c-1.7,1.7-2.6,4-2.6,7
	v45.5c0,6.6-1.7,11.9-5,15.7c-3.3,3.9-8.3,5.8-15.1,5.8c-6.7,0-11.8-2-15.3-5.9c-3.5-3.9-5.2-9.1-5.2-15.6V40.3c0-3-0.9-5.3-2.6-7
	c-1.8-1.7-4-2.5-6.8-2.5c-2.9,0-5.2,0.8-6.9,2.5c-1.7,1.7-2.6,4-2.6,7v45.5c0,6,0.9,11.4,2.6,16.4c1.8,5,4.3,9.2,7.6,12.7
	c3.3,3.5,7.3,6.3,12.1,8.3c4.7,2,10.1,3,16.1,3c5.2,0,9.7-0.9,13.4-2.8c3.7-1.9,6.7-4.4,8.9-7.6c1,5.5,4.2,8.3,9.6,8.3
	C150.2,124,152.1,123.3,153.7,121.8 M21.9,11.3c0-2.9-0.9-5.2-2.6-6.9c-1.7-1.7-4.1-2.6-7-2.6c-2.6,0-4.9,0.9-6.7,2.6
	c-1.8,1.7-2.7,4-2.7,6.9v102.3c0,3,0.8,5.3,2.5,7c1.7,1.7,4,2.6,7.1,2.6h47.8c2.9,0,5.2-0.9,6.9-2.6c1.7-1.7,2.6-4.1,2.6-7
	c0-2.9-0.9-5.2-2.6-6.9c-1.7-1.7-4-2.6-6.9-2.6H21.9V11.3z"/>
<path class="st1" d="M497.7,23.1c11.4,0,20.7,9.2,20.7,20.5S509.1,64,497.7,64c-11.4,0-20.7-9.2-20.7-20.5S486.3,23.1,497.7,23.1"/>
</svg>
